<svg xmlns="http://www.w3.org/2000/svg" width="1608" height="600" font-family="sans-serif">
<rect width="100%" height="100%" fill="white"/>
<g transform="translate(0,0)">
<rect x="-65" y="40" width="471" height="471" fill="#dcdcdc"/>
<path d="M -65.2,96.0 L 468.0,96.0 M 468.0,391.3 L 468.0,505.2" fill="none" stroke="#1F6FB2" stroke-width="2.6"/>
<path d="M -65.2,155.1 L 408.9,155.1 M 408.9,391.3 L 408.9,505.2" fill="none" stroke="#1F6FB2" stroke-width="2.6"/>
<circle cx="330.2" cy="233.8" r="78.7" fill="#25e0e0" stroke="#0a6"/>
<circle cx="330.2" cy="391.3" r="78.7" fill="#25e0e0" stroke="#0a6"/>
<polyline points="385.88,446.95 386.37,446.46 386.85,445.97 387.32,445.48 387.79,444.98 388.26,444.47 388.72,443.96 389.18,443.45 389.63,442.93 390.08,442.41 390.52,441.89 390.96,441.36 391.40,440.83 391.83,440.29 392.25,439.75 392.67,439.21 393.09,438.66 393.50,438.11 393.91,437.56 394.31,437.00 394.71,436.44 395.10,435.87 395.48,435.31 395.87,434.73 396.24,434.16 396.61,433.58 396.98,433.00 397.34,432.42 397.70,431.83 398.05,431.24 398.40,430.65 398.74,430.05 399.07,429.45 399.40,428.85 399.73,428.24 400.05,427.63 400.36,427.02 400.67,426.41 400.98,425.79 401.27,425.17 401.57,424.55 401.86,423.93 402.14,423.30 402.41,422.67 402.69,422.04 402.95,421.41 403.21,420.77 403.47,420.13 403.72,419.49 403.96,418.85 404.20,418.21 404.43,417.56 404.66,416.91 404.88,416.26 405.09,415.61 405.30,414.95 405.50,414.30 405.70,413.64 405.89,412.98 406.08,412.32 406.26,411.65 406.44,410.99 406.61,410.32 406.77,409.66 406.93,408.99 407.08,408.32 407.22,407.65 407.36,406.97 407.50,406.30 407.63,405.62 407.75,404.95 407.87,404.27 407.98,403.59 408.08,402.91 408.18,402.23 408.27,401.55 408.36,400.87 408.44,400.19 408.51,399.51 408.58,398.82 408.65,398.14 408.70,397.45 408.75,396.77 408.80,396.08 408.84,395.40 408.87,394.71 408.90,394.02 408.92,393.34 408.93,392.65 408.94,391.96 408.94,391.28 408.94,233.80 408.92,231.73 408.84,229.67 408.70,227.62 408.51,225.56 408.27,223.52 407.98,221.48 407.63,219.45 407.22,217.42 406.77,215.41 406.26,213.42 405.70,211.43 405.09,209.46 404.43,207.51 403.72,205.58 402.95,203.66 402.14,201.77 401.27,199.90 400.36,198.05 399.40,196.22 398.40,194.43 397.34,192.65 396.24,190.91 395.10,189.20 393.91,187.51 392.67,185.86 391.40,184.24 390.08,182.66 388.72,181.11 387.32,179.59 385.88,178.12 384.41,176.68 382.89,175.28 381.34,173.92 379.76,172.60 378.14,171.33 376.49,170.09 374.80,168.90 373.09,167.76 371.35,166.66 369.58,165.60 367.78,164.60 365.95,163.64 364.10,162.73 362.23,161.86 360.34,161.05 358.42,160.28 356.49,159.57 354.54,158.91 352.57,158.30 350.58,157.74 348.59,157.23 346.58,156.78 344.55,156.37 342.52,156.02 340.48,155.73 338.44,155.49 336.38,155.30 334.33,155.16 332.27,155.08 330.21,155.06 328.14,155.08 326.08,155.16 324.03,155.30 321.97,155.49 319.93,155.73 317.89,156.02 315.86,156.37 313.83,156.78 311.82,157.23 309.83,157.74 307.84,158.30 305.87,158.91 303.92,159.57 301.99,160.28 300.07,161.05 298.18,161.86 296.31,162.73 294.46,163.64 292.63,164.60 290.84,165.60 289.06,166.66 287.32,167.76 285.61,168.90 283.92,170.09 282.27,171.33 280.65,172.60 279.07,173.92 277.52,175.28 276.00,176.68 274.53,178.12" fill="none" stroke="#d02020" stroke-width="3.0"/>
<polyline points="427.64,488.71 428.49,487.86 429.33,487.00 430.16,486.13 430.98,485.25 431.80,484.37 432.61,483.48 433.41,482.58 434.20,481.68 434.99,480.77 435.76,479.85 436.53,478.92 437.29,477.99 438.04,477.05 438.79,476.11 439.53,475.16 440.25,474.20 440.97,473.24 441.68,472.27 442.39,471.29 443.08,470.31 443.77,469.32 444.44,468.33 445.11,467.33 445.77,466.32 446.42,465.31 447.06,464.30 447.69,463.27 448.32,462.24 448.93,461.21 449.54,460.17 450.14,459.13 450.72,458.08 451.30,457.03 451.87,455.97 452.43,454.90 452.98,453.83 453.52,452.76 454.05,451.68 454.58,450.60 455.09,449.51 455.59,448.42 456.09,447.32 456.57,446.22 457.05,445.12 457.51,444.01 457.97,442.89 458.41,441.78 458.85,440.66 459.27,439.53 459.69,438.40 460.10,437.27 460.49,436.14 460.88,435.00 461.26,433.86 461.62,432.71 461.98,431.56 462.33,430.41 462.66,429.26 462.99,428.10 463.30,426.94 463.61,425.78 463.91,424.61 464.19,423.44 464.47,422.27 464.73,421.10 464.99,419.92 465.23,418.75 465.47,417.57 465.69,416.39 465.91,415.20 466.11,414.02 466.30,412.83 466.49,411.64 466.66,410.45 466.82,409.26 466.97,408.07 467.11,406.87 467.25,405.68 467.37,404.48 467.48,403.28 467.58,402.09 467.66,400.89 467.74,399.69 467.81,398.49 467.87,397.29 467.92,396.08 467.95,394.88 467.98,393.68 467.99,392.48 468.00,391.28 468.00,233.80 467.95,230.19 467.81,226.58 467.58,222.98 467.25,219.39 466.82,215.81 466.30,212.24 465.69,208.68 464.99,205.15 464.19,201.63 463.30,198.13 462.33,194.66 461.26,191.21 460.10,187.80 458.85,184.41 457.51,181.06 456.09,177.75 454.58,174.47 452.98,171.24 451.30,168.04 449.54,164.90 447.69,161.80 445.77,158.75 443.77,155.75 441.68,152.80 439.53,149.91 437.29,147.08 434.99,144.30 432.61,141.59 430.16,138.94 427.64,136.36 425.06,133.84 422.41,131.39 419.70,129.01 416.92,126.71 414.09,124.47 411.20,122.32 408.25,120.23 405.25,118.23 402.20,116.31 399.10,114.46 395.96,112.70 392.76,111.02 389.53,109.42 386.25,107.91 382.94,106.49 379.59,105.15 376.20,103.90 372.79,102.74 369.34,101.67 365.87,100.70 362.37,99.81 358.85,99.01 355.32,98.31 351.76,97.70 348.19,97.18 344.61,96.75 341.02,96.42 337.42,96.19 333.81,96.05 330.21,96.00 326.60,96.05 322.99,96.19 319.39,96.42 315.80,96.75 312.22,97.18 308.65,97.70 305.09,98.31 301.56,99.01 298.04,99.81 294.54,100.70 291.07,101.67 287.62,102.74 284.21,103.90 280.82,105.15 277.47,106.49 274.16,107.91 270.88,109.42 267.65,111.02 264.45,112.70 261.31,114.46 258.21,116.31 255.16,118.23 252.16,120.23 249.21,122.32 246.32,124.47 243.49,126.71 240.71,129.01 238.00,131.39 235.35,133.84 232.77,136.36" fill="none" stroke="#d02020" stroke-width="3.0"/>
<polyline points="385.88,446.95 228.06,604.78" fill="none" stroke="#d02020" stroke-width="3.0"/>
<polyline points="427.64,488.71 269.82,646.54" fill="none" stroke="#d02020" stroke-width="3.0"/>
<polyline points="274.53,178.12 116.70,335.94" fill="none" stroke="#d02020" stroke-width="3.0"/>
<polyline points="232.77,136.36 74.94,294.18" fill="none" stroke="#d02020" stroke-width="3.0"/>
<text x="-65" y="42" font-size="20" font-weight="bold">G  obrondo entero (lo de ahora)</text>
<text x="-65" y="536" font-size="13" fill="#333">La vuelta pasa por el costado y la esquina</text>
</g>
<g transform="translate(496.0,0)">
<rect x="-65" y="40" width="471" height="471" fill="#dcdcdc"/>
<path d="M -65.2,96.0 L 330.2,96.0 A 137.8,137.8 0 0 1 468.0,233.8 L 468.0,505.2" fill="none" stroke="#1F6FB2" stroke-width="2.6"/>
<path d="M -65.2,155.1 L 330.2,155.1 A 78.7,78.7 0 0 1 408.9,233.8 L 408.9,505.2" fill="none" stroke="#1F6FB2" stroke-width="2.6"/>
<circle cx="330.2" cy="233.8" r="78.7" fill="#25e0e0" stroke="#0a6"/>
<circle cx="330.2" cy="391.3" r="78.7" fill="#25e0e0" stroke="#0a6"/>
<polyline points="385.88,446.95 386.37,446.46 386.85,445.97 387.32,445.48 387.79,444.98 388.26,444.47 388.72,443.96 389.18,443.45 389.63,442.93 390.08,442.41 390.52,441.89 390.96,441.36 391.40,440.83 391.83,440.29 392.25,439.75 392.67,439.21 393.09,438.66 393.50,438.11 393.91,437.56 394.31,437.00 394.71,436.44 395.10,435.87 395.48,435.31 395.87,434.73 396.24,434.16 396.61,433.58 396.98,433.00 397.34,432.42 397.70,431.83 398.05,431.24 398.40,430.65 398.74,430.05 399.07,429.45 399.40,428.85 399.73,428.24 400.05,427.63 400.36,427.02 400.67,426.41 400.98,425.79 401.27,425.17 401.57,424.55 401.86,423.93 402.14,423.30 402.41,422.67 402.69,422.04 402.95,421.41 403.21,420.77 403.47,420.13 403.72,419.49 403.96,418.85 404.20,418.21 404.43,417.56 404.66,416.91 404.88,416.26 405.09,415.61 405.30,414.95 405.50,414.30 405.70,413.64 405.89,412.98 406.08,412.32 406.26,411.65 406.44,410.99 406.61,410.32 406.77,409.66 406.93,408.99 407.08,408.32 407.22,407.65 407.36,406.97 407.50,406.30 407.63,405.62 407.75,404.95 407.87,404.27 407.98,403.59 408.08,402.91 408.18,402.23 408.27,401.55 408.36,400.87 408.44,400.19 408.51,399.51 408.58,398.82 408.65,398.14 408.70,397.45 408.75,396.77 408.80,396.08 408.84,395.40 408.87,394.71 408.90,394.02 408.92,393.34 408.93,392.65 408.94,391.96 408.94,391.28 408.94,233.80" fill="none" stroke="#d02020" stroke-width="3.0"/>
<polyline points="408.94,233.80 408.92,231.73 408.84,229.67 408.70,227.62 408.51,225.56 408.27,223.52 407.98,221.48 407.63,219.45 407.22,217.42 406.77,215.41 406.26,213.42 405.70,211.43 405.09,209.46 404.43,207.51 403.72,205.58 402.95,203.66 402.14,201.77 401.27,199.90 400.36,198.05 399.40,196.22 398.40,194.43 397.34,192.65 396.24,190.91 395.10,189.20 393.91,187.51 392.67,185.86 391.40,184.24 390.08,182.66 388.72,181.11 387.32,179.59 385.88,178.12 384.41,176.68 382.89,175.28 381.34,173.92 379.76,172.60 378.14,171.33 376.49,170.09 374.80,168.90 373.09,167.76 371.35,166.66 369.58,165.60 367.78,164.60 365.95,163.64 364.10,162.73 362.23,161.86 360.34,161.05 358.42,160.28 356.49,159.57 354.54,158.91 352.57,158.30 350.58,157.74 348.59,157.23 346.58,156.78 344.55,156.37 342.52,156.02 340.48,155.73 338.44,155.49 336.38,155.30 334.33,155.16 332.27,155.08 330.21,155.06 328.14,155.08 326.08,155.16 324.03,155.30 321.97,155.49 319.93,155.73 317.89,156.02 315.86,156.37 313.83,156.78 311.82,157.23 309.83,157.74 307.84,158.30 305.87,158.91 303.92,159.57 301.99,160.28 300.07,161.05 298.18,161.86 296.31,162.73 294.46,163.64 292.63,164.60 290.84,165.60 289.06,166.66 287.32,167.76 285.61,168.90 283.92,170.09 282.27,171.33 280.65,172.60 279.07,173.92 277.52,175.28 276.00,176.68 274.53,178.12" fill="none" stroke="#d02020" stroke-width="3.0"/>
<polyline points="427.64,488.71 428.49,487.86 429.33,487.00 430.16,486.13 430.98,485.25 431.80,484.37 432.61,483.48 433.41,482.58 434.20,481.68 434.99,480.77 435.76,479.85 436.53,478.92 437.29,477.99 438.04,477.05 438.79,476.11 439.53,475.16 440.25,474.20 440.97,473.24 441.68,472.27 442.39,471.29 443.08,470.31 443.77,469.32 444.44,468.33 445.11,467.33 445.77,466.32 446.42,465.31 447.06,464.30 447.69,463.27 448.32,462.24 448.93,461.21 449.54,460.17 450.14,459.13 450.72,458.08 451.30,457.03 451.87,455.97 452.43,454.90 452.98,453.83 453.52,452.76 454.05,451.68 454.58,450.60 455.09,449.51 455.59,448.42 456.09,447.32 456.57,446.22 457.05,445.12 457.51,444.01 457.97,442.89 458.41,441.78 458.85,440.66 459.27,439.53 459.69,438.40 460.10,437.27 460.49,436.14 460.88,435.00 461.26,433.86 461.62,432.71 461.98,431.56 462.33,430.41 462.66,429.26 462.99,428.10 463.30,426.94 463.61,425.78 463.91,424.61 464.19,423.44 464.47,422.27 464.73,421.10 464.99,419.92 465.23,418.75 465.47,417.57 465.69,416.39 465.91,415.20 466.11,414.02 466.30,412.83 466.49,411.64 466.66,410.45 466.82,409.26 466.97,408.07 467.11,406.87 467.25,405.68 467.37,404.48 467.48,403.28 467.58,402.09 467.66,400.89 467.74,399.69 467.81,398.49 467.87,397.29 467.92,396.08 467.95,394.88 467.98,393.68 467.99,392.48 468.00,391.28 468.00,233.80" fill="none" stroke="#d02020" stroke-width="3.0"/>
<polyline points="468.00,233.80 467.95,230.19 467.81,226.58 467.58,222.98 467.25,219.39 466.82,215.81 466.30,212.24 465.69,208.68 464.99,205.15 464.19,201.63 463.30,198.13 462.33,194.66 461.26,191.21 460.10,187.80 458.85,184.41 457.51,181.06 456.09,177.75 454.58,174.47 452.98,171.24 451.30,168.04 449.54,164.90 447.69,161.80 445.77,158.75 443.77,155.75 441.68,152.80 439.53,149.91 437.29,147.08 434.99,144.30 432.61,141.59 430.16,138.94 427.64,136.36 425.06,133.84 422.41,131.39 419.70,129.01 416.92,126.71 414.09,124.47 411.20,122.32 408.25,120.23 405.25,118.23 402.20,116.31 399.10,114.46 395.96,112.70 392.76,111.02 389.53,109.42 386.25,107.91 382.94,106.49 379.59,105.15 376.20,103.90 372.79,102.74 369.34,101.67 365.87,100.70 362.37,99.81 358.85,99.01 355.32,98.31 351.76,97.70 348.19,97.18 344.61,96.75 341.02,96.42 337.42,96.19 333.81,96.05 330.21,96.00 326.60,96.05 322.99,96.19 319.39,96.42 315.80,96.75 312.22,97.18 308.65,97.70 305.09,98.31 301.56,99.01 298.04,99.81 294.54,100.70 291.07,101.67 287.62,102.74 284.21,103.90 280.82,105.15 277.47,106.49 274.16,107.91 270.88,109.42 267.65,111.02 264.45,112.70 261.31,114.46 258.21,116.31 255.16,118.23 252.16,120.23 249.21,122.32 246.32,124.47 243.49,126.71 240.71,129.01 238.00,131.39 235.35,133.84 232.77,136.36" fill="none" stroke="#d02020" stroke-width="3.0"/>
<polyline points="274.53,178.12 116.70,335.94" fill="none" stroke="#d02020" stroke-width="3.0"/>
<polyline points="232.77,136.36 74.94,294.18" fill="none" stroke="#d02020" stroke-width="3.0"/>
<polyline points="385.88,446.95 228.06,604.78" fill="none" stroke="#d02020" stroke-width="3.0"/>
<polyline points="427.64,488.71 269.82,646.54" fill="none" stroke="#d02020" stroke-width="3.0"/>
<text x="-65" y="42" font-size="20" font-weight="bold">H  igual pero el estribo entero</text>
<text x="-65" y="536" font-size="13" fill="#333">El estribo cierra su esquina y el gancho va encima</text>
</g>
<g transform="translate(992.0,0)">
<rect x="-65" y="40" width="471" height="471" fill="#dcdcdc"/>
<path d="M -65.2,96.0 L 330.2,96.0 A 137.8,137.8 0 0 1 468.0,233.8 L 468.0,505.2" fill="none" stroke="#1F6FB2" stroke-width="2.6"/>
<path d="M -65.2,155.1 L 330.2,155.1 A 78.7,78.7 0 0 1 408.9,233.8 L 408.9,505.2" fill="none" stroke="#1F6FB2" stroke-width="2.6"/>
<circle cx="330.2" cy="233.8" r="78.7" fill="#25e0e0" stroke="#0a6"/>
<circle cx="330.2" cy="391.3" r="78.7" fill="#25e0e0" stroke="#0a6"/>
<polyline points="385.88,446.95 383.91,448.86 381.86,450.70 379.76,452.47 377.59,454.16 375.37,455.78 373.09,457.31 370.76,458.77 368.38,460.14 365.95,461.43 363.48,462.64 360.97,463.76 358.42,464.79 355.84,465.73 353.23,466.57 350.58,467.33 347.92,468.00 345.23,468.57 342.52,469.05 339.80,469.43 337.07,469.72 334.33,469.91 331.58,470.00 328.83,470.00 326.08,469.91 323.34,469.72 320.61,469.43 317.89,469.05 315.18,468.57 312.49,468.00 309.83,467.33 307.18,466.57 304.57,465.73 301.99,464.79 299.44,463.76 296.93,462.64 294.46,461.43 292.03,460.14 289.65,458.77 287.32,457.31 285.04,455.78 282.82,454.16 280.65,452.47 278.55,450.70 276.50,448.86 274.53,446.95 272.62,444.98 270.78,442.93 269.01,440.83 267.32,438.66 265.70,436.44 264.17,434.16 262.71,431.83 261.34,429.45 260.05,427.02 258.84,424.55 257.72,422.04 256.69,419.49 255.75,416.91 254.91,414.30 254.15,411.65 253.48,408.99 252.91,406.30 252.43,403.59 252.05,400.87 251.76,398.14 251.57,395.40 251.48,392.65 251.48,389.90 251.57,387.15 251.76,384.41 252.05,381.68 252.43,378.96 252.91,376.25 253.48,373.56 254.15,370.90 254.91,368.25 255.75,365.64 256.69,363.06 257.72,360.51 258.84,358.00 260.05,355.53 261.34,353.10 262.71,350.72 264.17,348.39 265.70,346.11 267.32,343.89 269.01,341.72 270.78,339.62 272.62,337.57 274.53,335.60" fill="none" stroke="#d02020" stroke-width="3.0"/>
<polyline points="427.64,488.71 424.18,492.05 420.61,495.27 416.92,498.36 413.13,501.32 409.24,504.15 405.25,506.84 401.17,509.39 397.01,511.79 392.76,514.05 388.44,516.16 384.05,518.12 379.59,519.92 375.07,521.56 370.49,523.05 365.87,524.37 361.20,525.54 356.50,526.54 351.76,527.37 347.00,528.04 342.21,528.55 337.42,528.88 332.61,529.05 327.80,529.05 322.99,528.88 318.20,528.55 313.41,528.04 308.65,527.37 303.91,526.54 299.21,525.54 294.54,524.37 289.92,523.05 285.34,521.56 280.82,519.92 276.36,518.12 271.97,516.16 267.65,514.05 263.40,511.79 259.24,509.39 255.16,506.84 251.17,504.15 247.28,501.32 243.49,498.36 239.80,495.27 236.23,492.05 232.77,488.71 229.43,485.25 226.21,481.68 223.12,477.99 220.16,474.20 217.33,470.31 214.64,466.32 212.09,462.24 209.69,458.08 207.43,453.83 205.32,449.51 203.36,445.12 201.56,440.66 199.92,436.14 198.43,431.56 197.11,426.94 195.94,422.27 194.94,417.57 194.11,412.83 193.44,408.07 192.93,403.28 192.60,398.49 192.43,393.68 192.43,388.87 192.60,384.06 192.93,379.27 193.44,374.48 194.11,369.72 194.94,364.98 195.94,360.28 197.11,355.61 198.43,350.99 199.92,346.41 201.56,341.89 203.36,337.43 205.32,333.04 207.43,328.72 209.69,324.47 212.09,320.31 214.64,316.23 217.33,312.24 220.16,308.35 223.12,304.56 226.21,300.87 229.43,297.30 232.77,293.84" fill="none" stroke="#d02020" stroke-width="3.0"/>
<polyline points="385.88,446.95 228.06,604.78" fill="none" stroke="#d02020" stroke-width="3.0"/>
<polyline points="427.64,488.71 269.82,646.54" fill="none" stroke="#d02020" stroke-width="3.0"/>
<polyline points="274.53,335.60 116.70,493.42" fill="none" stroke="#d02020" stroke-width="3.0"/>
<polyline points="232.77,293.84 74.94,451.66" fill="none" stroke="#d02020" stroke-width="3.0"/>
<text x="-65" y="42" font-size="20" font-weight="bold">I  media vuelta solo en la de abajo</text>
<text x="-65" y="536" font-size="13" fill="#333">El gancho no sube: da la vuelta y sale</text>
</g>
</svg>