0
SECTION
2
ENTITIES
0
LINE
8
0
10
-0.476250
20
0.000000
30
0.0
11
-0.476250
21
2.381250
31
0.0
0
LINE
8
0
10
0.476250
20
0.000000
30
0.0
11
0.476250
21
2.381250
31
0.0
0
LINE
8
0
10
-0.476250
20
2.381250
30
0.0
11
0.476250
21
2.381250
31
0.0
0
LINE
8
0
10
-0.476250
20
0.000000
30
0.0
11
0.476250
21
0.140074
31
0.0
0
LINE
8
0
10
0.476250
20
0.140074
30
0.0
11
-0.476250
21
0.280147
31
0.0
0
LINE
8
0
10
-0.476250
20
0.280147
30
0.0
11
0.476250
21
0.420221
31
0.0
0
LINE
8
0
10
0.476250
20
0.420221
30
0.0
11
-0.476250
21
0.560294
31
0.0
0
LINE
8
0
10
-0.476250
20
0.560294
30
0.0
11
0.476250
21
0.700368
31
0.0
0
LINE
8
0
10
0.476250
20
0.700368
30
0.0
11
-0.476250
21
0.840441
31
0.0
0
LINE
8
0
10
-0.476250
20
0.840441
30
0.0
11
0.476250
21
0.980515
31
0.0
0
LINE
8
0
10
0.476250
20
0.980515
30
0.0
11
-0.476250
21
1.120588
31
0.0
0
LINE
8
0
10
-0.476250
20
1.120588
30
0.0
11
0.476250
21
1.260662
31
0.0
0
LINE
8
0
10
0.476250
20
1.260662
30
0.0
11
-0.476250
21
1.400735
31
0.0
0
LINE
8
0
10
-0.476250
20
1.400735
30
0.0
11
0.476250
21
1.540809
31
0.0
0
LINE
8
0
10
0.476250
20
1.540809
30
0.0
11
-0.476250
21
1.680882
31
0.0
0
LINE
8
0
10
-0.476250
20
1.680882
30
0.0
11
0.476250
21
1.820956
31
0.0
0
LINE
8
0
10
0.476250
20
1.820956
30
0.0
11
-0.476250
21
1.961029
31
0.0
0
LINE
8
0
10
-0.476250
20
1.961029
30
0.0
11
0.476250
21
2.101103
31
0.0
0
LINE
8
0
10
0.476250
20
2.101103
30
0.0
11
-0.476250
21
2.241176
31
0.0
0
LINE
8
0
10
-0.476250
20
2.241176
30
0.0
11
0.476250
21
2.381250
31
0.0
0
LINE
8
0
10
5.238750
20
0.000000
30
0.0
11
5.238750
21
2.381250
31
0.0
0
LINE
8
0
10
6.191250
20
0.000000
30
0.0
11
6.191250
21
2.381250
31
0.0
0
LINE
8
0
10
5.238750
20
2.381250
30
0.0
11
6.191250
21
2.381250
31
0.0
0
LINE
8
0
10
5.238750
20
0.000000
30
0.0
11
6.191250
21
0.140074
31
0.0
0
LINE
8
0
10
6.191250
20
0.140074
30
0.0
11
5.238750
21
0.280147
31
0.0
0
LINE
8
0
10
5.238750
20
0.280147
30
0.0
11
6.191250
21
0.420221
31
0.0
0
LINE
8
0
10
6.191250
20
0.420221
30
0.0
11
5.238750
21
0.560294
31
0.0
0
LINE
8
0
10
5.238750
20
0.560294
30
0.0
11
6.191250
21
0.700368
31
0.0
0
LINE
8
0
10
6.191250
20
0.700368
30
0.0
11
5.238750
21
0.840441
31
0.0
0
LINE
8
0
10
5.238750
20
0.840441
30
0.0
11
6.191250
21
0.980515
31
0.0
0
LINE
8
0
10
6.191250
20
0.980515
30
0.0
11
5.238750
21
1.120588
31
0.0
0
LINE
8
0
10
5.238750
20
1.120588
30
0.0
11
6.191250
21
1.260662
31
0.0
0
LINE
8
0
10
6.191250
20
1.260662
30
0.0
11
5.238750
21
1.400735
31
0.0
0
LINE
8
0
10
5.238750
20
1.400735
30
0.0
11
6.191250
21
1.540809
31
0.0
0
LINE
8
0
10
6.191250
20
1.540809
30
0.0
11
5.238750
21
1.680882
31
0.0
0
LINE
8
0
10
5.238750
20
1.680882
30
0.0
11
6.191250
21
1.820956
31
0.0
0
LINE
8
0
10
6.191250
20
1.820956
30
0.0
11
5.238750
21
1.961029
31
0.0
0
LINE
8
0
10
5.238750
20
1.961029
30
0.0
11
6.191250
21
2.101103
31
0.0
0
LINE
8
0
10
6.191250
20
2.101103
30
0.0
11
5.238750
21
2.241176
31
0.0
0
LINE
8
0
10
5.238750
20
2.241176
30
0.0
11
6.191250
21
2.381250
31
0.0
0
LINE
8
0
10
6.191250
20
0.000000
30
0.0
11
5.238750
21
0.140074
31
0.0
0
LINE
8
0
10
5.238750
20
0.140074
30
0.0
11
6.191250
21
0.280147
31
0.0
0
LINE
8
0
10
6.191250
20
0.280147
30
0.0
11
5.238750
21
0.420221
31
0.0
0
LINE
8
0
10
5.238750
20
0.420221
30
0.0
11
6.191250
21
0.560294
31
0.0
0
LINE
8
0
10
6.191250
20
0.560294
30
0.0
11
5.238750
21
0.700368
31
0.0
0
LINE
8
0
10
5.238750
20
0.700368
30
0.0
11
6.191250
21
0.840441
31
0.0
0
LINE
8
0
10
6.191250
20
0.840441
30
0.0
11
5.238750
21
0.980515
31
0.0
0
LINE
8
0
10
5.238750
20
0.980515
30
0.0
11
6.191250
21
1.120588
31
0.0
0
LINE
8
0
10
6.191250
20
1.120588
30
0.0
11
5.238750
21
1.260662
31
0.0
0
LINE
8
0
10
5.238750
20
1.260662
30
0.0
11
6.191250
21
1.400735
31
0.0
0
LINE
8
0
10
6.191250
20
1.400735
30
0.0
11
5.238750
21
1.540809
31
0.0
0
LINE
8
0
10
5.238750
20
1.540809
30
0.0
11
6.191250
21
1.680882
31
0.0
0
LINE
8
0
10
6.191250
20
1.680882
30
0.0
11
5.238750
21
1.820956
31
0.0
0
LINE
8
0
10
5.238750
20
1.820956
30
0.0
11
6.191250
21
1.961029
31
0.0
0
LINE
8
0
10
6.191250
20
1.961029
30
0.0
11
5.238750
21
2.101103
31
0.0
0
LINE
8
0
10
5.238750
20
2.101103
30
0.0
11
6.191250
21
2.241176
31
0.0
0
LINE
8
0
10
6.191250
20
2.241176
30
0.0
11
5.238750
21
2.381250
31
0.0
0
LINE
8
0
10
10.953750
20
0.000000
30
0.0
11
10.953750
21
2.381250
31
0.0
0
LINE
8
0
10
11.906250
20
0.000000
30
0.0
11
11.906250
21
2.381250
31
0.0
0
LINE
8
0
10
10.953750
20
2.381250
30
0.0
11
11.906250
21
2.381250
31
0.0
0
LINE
8
0
10
10.953750
20
0.000000
30
0.0
11
11.906250
21
0.140074
31
0.0
0
LINE
8
0
10
11.906250
20
0.140074
30
0.0
11
10.953750
21
0.280147
31
0.0
0
LINE
8
0
10
10.953750
20
0.280147
30
0.0
11
11.906250
21
0.420221
31
0.0
0
LINE
8
0
10
11.906250
20
0.420221
30
0.0
11
10.953750
21
0.560294
31
0.0
0
LINE
8
0
10
10.953750
20
0.560294
30
0.0
11
11.906250
21
0.700368
31
0.0
0
LINE
8
0
10
11.906250
20
0.700368
30
0.0
11
10.953750
21
0.840441
31
0.0
0
LINE
8
0
10
10.953750
20
0.840441
30
0.0
11
11.906250
21
0.980515
31
0.0
0
LINE
8
0
10
11.906250
20
0.980515
30
0.0
11
10.953750
21
1.120588
31
0.0
0
LINE
8
0
10
10.953750
20
1.120588
30
0.0
11
11.906250
21
1.260662
31
0.0
0
LINE
8
0
10
11.906250
20
1.260662
30
0.0
11
10.953750
21
1.400735
31
0.0
0
LINE
8
0
10
10.953750
20
1.400735
30
0.0
11
11.906250
21
1.540809
31
0.0
0
LINE
8
0
10
11.906250
20
1.540809
30
0.0
11
10.953750
21
1.680882
31
0.0
0
LINE
8
0
10
10.953750
20
1.680882
30
0.0
11
11.906250
21
1.820956
31
0.0
0
LINE
8
0
10
11.906250
20
1.820956
30
0.0
11
10.953750
21
1.961029
31
0.0
0
LINE
8
0
10
10.953750
20
1.961029
30
0.0
11
11.906250
21
2.101103
31
0.0
0
LINE
8
0
10
11.906250
20
2.101103
30
0.0
11
10.953750
21
2.241176
31
0.0
0
LINE
8
0
10
10.953750
20
2.241176
30
0.0
11
11.906250
21
2.381250
31
0.0
0
LINE
8
0
10
11.906250
20
0.070037
30
0.0
11
10.953750
21
0.210110
31
0.0
0
LINE
8
0
10
10.953750
20
0.210110
30
0.0
11
11.906250
21
0.350184
31
0.0
0
LINE
8
0
10
11.906250
20
0.350184
30
0.0
11
10.953750
21
0.490257
31
0.0
0
LINE
8
0
10
10.953750
20
0.490257
30
0.0
11
11.906250
21
0.630331
31
0.0
0
LINE
8
0
10
11.906250
20
0.630331
30
0.0
11
10.953750
21
0.770404
31
0.0
0
LINE
8
0
10
10.953750
20
0.770404
30
0.0
11
11.906250
21
0.910478
31
0.0
0
LINE
8
0
10
11.906250
20
0.910478
30
0.0
11
10.953750
21
1.050551
31
0.0
0
LINE
8
0
10
10.953750
20
1.050551
30
0.0
11
11.906250
21
1.190625
31
0.0
0
LINE
8
0
10
11.906250
20
1.190625
30
0.0
11
10.953750
21
1.330699
31
0.0
0
LINE
8
0
10
10.953750
20
1.330699
30
0.0
11
11.906250
21
1.470772
31
0.0
0
LINE
8
0
10
11.906250
20
1.470772
30
0.0
11
10.953750
21
1.610846
31
0.0
0
LINE
8
0
10
10.953750
20
1.610846
30
0.0
11
11.906250
21
1.750919
31
0.0
0
LINE
8
0
10
11.906250
20
1.750919
30
0.0
11
10.953750
21
1.890993
31
0.0
0
LINE
8
0
10
10.953750
20
1.890993
30
0.0
11
11.906250
21
2.031066
31
0.0
0
LINE
8
0
10
11.906250
20
2.031066
30
0.0
11
10.953750
21
2.171140
31
0.0
0
LINE
8
0
10
10.953750
20
2.171140
30
0.0
11
11.906250
21
2.311213
31
0.0
0
LINE
8
0
10
16.668750
20
0.000000
30
0.0
11
16.668750
21
2.381250
31
0.0
0
LINE
8
0
10
17.621250
20
0.000000
30
0.0
11
17.621250
21
2.381250
31
0.0
0
LINE
8
0
10
16.668750
20
2.381250
30
0.0
11
17.621250
21
2.381250
31
0.0
0
LINE
8
0
10
16.668750
20
0.000000
30
0.0
11
17.621250
21
0.280147
31
0.0
0
LINE
8
0
10
17.621250
20
0.280147
30
0.0
11
16.668750
21
0.560294
31
0.0
0
LINE
8
0
10
16.668750
20
0.560294
30
0.0
11
17.621250
21
0.840441
31
0.0
0
LINE
8
0
10
17.621250
20
0.840441
30
0.0
11
16.668750
21
1.120588
31
0.0
0
LINE
8
0
10
16.668750
20
1.120588
30
0.0
11
17.621250
21
1.400735
31
0.0
0
LINE
8
0
10
17.621250
20
1.400735
30
0.0
11
16.668750
21
1.680882
31
0.0
0
LINE
8
0
10
16.668750
20
1.680882
30
0.0
11
17.621250
21
1.961029
31
0.0
0
LINE
8
0
10
17.621250
20
1.961029
30
0.0
11
16.668750
21
2.241176
31
0.0
0
LINE
8
0
10
17.621250
20
0.140074
30
0.0
11
16.668750
21
0.420221
31
0.0
0
LINE
8
0
10
16.668750
20
0.420221
30
0.0
11
17.621250
21
0.700368
31
0.0
0
LINE
8
0
10
17.621250
20
0.700368
30
0.0
11
16.668750
21
0.980515
31
0.0
0
LINE
8
0
10
16.668750
20
0.980515
30
0.0
11
17.621250
21
1.260662
31
0.0
0
LINE
8
0
10
17.621250
20
1.260662
30
0.0
11
16.668750
21
1.540809
31
0.0
0
LINE
8
0
10
16.668750
20
1.540809
30
0.0
11
17.621250
21
1.820956
31
0.0
0
LINE
8
0
10
17.621250
20
1.820956
30
0.0
11
16.668750
21
2.101103
31
0.0
0
LINE
8
0
10
16.668750
20
2.101103
30
0.0
11
17.621250
21
2.381250
31
0.0
0
TEXT
8
0
10
-0.476250
20
-1.143000
30
0.0
40
0.857250
1
A
0
TEXT
8
0
10
22.860000
20
2.381250
30
0.0
40
0.333375
1
A  una hebra, sin cruces
0
TEXT
8
0
10
5.238750
20
-1.143000
30
0.0
40
0.857250
1
B
0
TEXT
8
0
10
22.860000
20
1.143000
30
0.0
40
0.333375
1
B  dos hebras espejadas (lo del principio)
0
TEXT
8
0
10
10.953750
20
-1.143000
30
0.0
40
0.857250
1
C
0
TEXT
8
0
10
22.860000
20
-0.095250
30
0.0
40
0.333375
1
C  dos hebras, medio diente (lo de ahora)
0
TEXT
8
0
10
16.668750
20
-1.143000
30
0.0
40
0.857250
1
D
0
TEXT
8
0
10
22.860000
20
-1.333500
30
0.0
40
0.333375
1
D  dos hebras, diagonal de dos dientes
0
TEXT
8
0
10
0.000000
20
-2.476500
30
0.0
40
0.333375
1
ancla 3/8"   rosca 2.38 cm   17 dientes   paso 0.143 cm
0
ENDSEC
0
EOF
